<svg xmlns="http://www.w3.org/2000/svg" width="82" height="28" viewBox="0 0 82 28">
    <g fill="#FFF" fill-rule="nonzero">
        <path d="M38.51 8.105c-1.573-.884-3.33-1.326-5.307-1.326-1.977 0-3.77.442-5.345 1.326-1.574.884-2.782 2.137-3.66 3.721-.88 1.585-1.319 3.39-1.319 5.416 0 1.99.44 3.795 1.318 5.38.879 1.583 2.087 2.8 3.661 3.72 1.574.884 3.368 1.326 5.345 1.326 1.976 0 3.77-.442 5.344-1.326 1.574-.884 2.782-2.137 3.661-3.72.879-1.585 1.318-3.39 1.318-5.38 0-2.026-.44-3.831-1.318-5.416-.915-1.62-2.123-2.837-3.697-3.72zm.477 12.748a6.173 6.173 0 0 1-2.343 2.505c-.989.59-2.16.92-3.405.92-1.244 0-2.416-.294-3.404-.92-1.025-.59-1.794-1.437-2.38-2.505-.585-1.069-.842-2.285-.842-3.648s.293-2.579.842-3.647c.586-1.069 1.355-1.916 2.38-2.505a6.736 6.736 0 0 1 3.404-.921c1.245 0 2.416.294 3.405.92 1.025.59 1.794 1.437 2.343 2.506.549 1.068.842 2.284.842 3.647s-.257 2.58-.842 3.648zM55.643 10.132c.952 0 1.794.147 2.526.479a6.43 6.43 0 0 1 2.05 1.473c.402.442.878.663 1.464.663.33 0 .622-.073.842-.258.55-.368.805-.847.805-1.4 0-.368-.11-.7-.366-.994-1.94-2.248-4.393-3.39-7.321-3.39-1.94 0-3.697.442-5.235 1.327-1.537.884-2.745 2.136-3.624 3.72-.842 1.585-1.281 3.39-1.281 5.416 0 1.953.439 3.721 1.318 5.343.878 1.584 2.123 2.836 3.697 3.757 1.574.921 3.331 1.364 5.308 1.364 2.709 0 4.942-.848 6.736-2.506.292-.294.439-.626.439-1.031 0-.516-.22-.958-.696-1.363a1.6 1.6 0 0 0-.988-.332c-.44 0-.915.184-1.391.516-1.062.884-2.416 1.326-4.1 1.326-1.281 0-2.453-.295-3.441-.92-1.025-.59-1.794-1.438-2.343-2.506-.55-1.069-.842-2.284-.842-3.648 0-2.136.586-3.831 1.794-5.12 1.171-1.253 2.709-1.916 4.649-1.916zM81.45 24.758l-7.247-8.953 6.882-6.152c.403-.332.586-.737.586-1.29 0-.442-.147-.847-.476-1.179-.33-.405-.732-.59-1.282-.59-.439 0-.842.148-1.171.48l-9.079 8.179V2.137c0-.553-.183-.995-.512-1.326-.33-.332-.769-.516-1.318-.516-.55 0-.988.184-1.318.516-.33.331-.512.773-.512 1.326v23.505c0 .553.183.995.512 1.326.33.332.769.516 1.318.516.55 0 .988-.184 1.318-.516.33-.331.512-.773.512-1.326v-5.747l1.867-1.658 7.102 8.842c.366.442.805.663 1.355.663.439 0 .805-.147 1.208-.442.439-.368.659-.847.659-1.4 0-.442-.147-.81-.403-1.142zM18.706.295c-.549 0-.988.184-1.354.516-.366.368-.55.81-.55 1.4v13.226h-.036c0 .037 0 .074.037.11v.995c0 2.505-.074 4.126-2.233 6.19-.257.22-.55.405-.842.59-1.025.625-2.124.92-3.368.92-1.245 0-2.38-.295-3.368-.92-1.025-.627-1.794-1.475-2.38-2.543-.585-1.068-.878-2.284-.878-3.61 0-1.327.293-2.543.878-3.611.586-1.069 1.392-1.916 2.38-2.505a6.51 6.51 0 0 1 2.965-.921L8.64 11.458c-.695.7-.695 1.879 0 2.616.696.7 1.867.7 2.6 0l4.319-4.348c.696-.7.696-1.879 0-2.615l-4.356-4.348c-.696-.7-1.867-.7-2.6 0-.695.7-.695 1.88 0 2.616l1.392 1.4H9.59c-1.794 0-3.404.442-4.869 1.363-1.464.921-2.599 2.137-3.44 3.758C.401 13.447 0 15.216 0 17.168c0 1.953.44 3.721 1.354 5.343.916 1.584 2.124 2.836 3.734 3.757 1.574.921 3.332 1.364 5.235 1.364 1.904 0 3.66-.443 5.198-1.364 1.575-.92 2.783-2.173 3.698-3.757.915-1.585 1.354-3.353 1.354-5.343V2.211c0-.59-.183-1.032-.512-1.4-.33-.332-.806-.516-1.355-.516z"/>
    </g>
</svg>
