<svg xmlns="http://www.w3.org/2000/svg" width="29" height="23" viewBox="0 0 29 23">
    <path fill="#FFF" fill-rule="nonzero" d="M28.884 10.375v.183c0 .66-.2 1.261-.598 1.803a3.734 3.734 0 0 1-1.405 1.191 4.4 4.4 0 0 1 .051.387c.013.14.021.278.021.425 0 1.431-.481 2.723-1.443 3.879a9.791 9.791 0 0 1-3.068 2.498 16.093 16.093 0 0 1-3.77 1.415c-.71.146-1.416.262-2.123.353-.702.091-1.408.137-2.117.137-1.082 0-2.147-.095-3.194-.282a17.132 17.132 0 0 1-3.047-.838 14.608 14.608 0 0 1-2.94-1.533 8.185 8.185 0 0 1-2.31-2.347 5.946 5.946 0 0 1-.74-1.586 5.894 5.894 0 0 1-.254-1.695c0-.121.008-.249.019-.389.014-.138.028-.267.055-.387-.59-.325-1.048-.725-1.371-1.191-.422-.567-.646-1.158-.667-1.769 0-.445.097-.868.297-1.273.199-.403.458-.767.783-1.091.348-.324.73-.577 1.147-.757a3.342 3.342 0 0 1 1.359-.271H3.895c.494 0 .962.073 1.405.217.423.144.807.343 1.157.596a4.053 4.053 0 0 1 .359-.146 12.545 12.545 0 0 1 3.328-1.235 24.885 24.885 0 0 1 3.545-.512c0-.544.049-1.089.146-1.642a4.414 4.414 0 0 1 .595-1.569c.24-.423.553-.78.939-1.076a3.503 3.503 0 0 1 1.315-.621h.036a5.79 5.79 0 0 1 1.101-.107c.964 0 1.938.196 2.923.595.397-.587.947-1.024 1.662-1.299h.033a4.759 4.759 0 0 1 1.265-.184c.494 0 .927.085 1.298.254h.038a3.262 3.262 0 0 1 1.479 1.1c.396.542.591 1.126.579 1.749 0 .146-.014.254-.036.327-.049.42-.169.795-.362 1.127a3.457 3.457 0 0 1-2.995 1.685h-.413a3.273 3.273 0 0 1-2.131-.989 3.469 3.469 0 0 1-.665-.93 2.564 2.564 0 0 1-.254-1.146v-.11a18.21 18.21 0 0 0-1.193-.388 4.486 4.486 0 0 0-1.225-.172h-.325c-.686.071-1.167.381-1.443.922a3.374 3.374 0 0 0-.423 1.208 8.625 8.625 0 0 0-.103 1.299c1.184.072 2.339.246 3.476.523 1.137.274 2.225.685 3.255 1.227l.037.036c.047 0 .098.023.145.072.194-.146.355-.247.486-.306.611-.398 1.316-.59 2.112-.579.301 0 .62.036.956.109h.036c.731.193 1.377.57 1.93 1.135.54.554.849 1.212.921 1.968zM4.868 9.076a10.692 10.692 0 0 1-.476-.144 1.599 1.599 0 0 0-.496-.071h-.18c-.445.048-.866.22-1.262.523-.352.322-.54.703-.579 1.137v.108c0 .3.085.546.254.74.118.216.259.376.415.486a7.654 7.654 0 0 1 .998-1.499c.392-.456.836-.882 1.326-1.28zM25.112 14.4c0-.494-.087-.968-.262-1.427a6.078 6.078 0 0 0-.693-1.298A7.765 7.765 0 0 0 21.9 9.706a12.233 12.233 0 0 0-2.814-1.189l-.578-.145-.559-.143a15.61 15.61 0 0 0-1.741-.272 17.326 17.326 0 0 0-1.738-.091 16.55 16.55 0 0 0-4.656.65c-.988.278-1.92.68-2.807 1.209a8.211 8.211 0 0 0-2.263 1.983 4.23 4.23 0 0 0-.956 2.726c0 .397.047.739.144 1.029.219.758.615 1.459 1.193 2.11a11.497 11.497 0 0 0 1.945 1.55l.272.127.254.146c1.034.541 2.136.936 3.309 1.181 1.172.247 2.36.37 3.564.37h.612c.201 0 .409-.01.612-.037a16.785 16.785 0 0 0 3.536-.667 11.91 11.91 0 0 0 3.211-1.515 7.097 7.097 0 0 0 1.623-1.552c.495-.613.819-1.269.976-1.967.047-.12.072-.247.072-.378l.001-.431zm-15.714.179c.169.071.354.107.56.107.468 0 .891-.156 1.263-.47.398-.323.596-.721.596-1.188V12.918c0-.443-.187-.822-.559-1.135-.396-.325-.832-.488-1.3-.488-.145 0-.267.011-.359.037a1.652 1.652 0 0 0-.857.388c-.249.21-.418.466-.516.768a.4.4 0 0 0-.073.233v.236c0 .396.109.744.327 1.046.239.289.544.48.918.576zm10.103 2.185c-.189-.098-.353-.146-.486-.146-.143 0-.297.036-.451.11a8.76 8.76 0 0 1-4.276 1.117c-1.154 0-2.225-.222-3.211-.667-.143-.049-.319-.162-.522-.343-.049-.024-.102-.046-.161-.071-.061-.024-.123-.049-.183-.071a1.128 1.128 0 0 0-.325-.075c-.071 0-.181.026-.324.075h-.04c-.144.047-.28.153-.413.323a.875.875 0 0 0-.107.451c0 .144.036.294.107.449a.752.752 0 0 0 .326.289 8.386 8.386 0 0 0 4.545 1.301h.269c.794 0 1.565-.076 2.31-.226a9.687 9.687 0 0 0 2.167-.712 4.99 4.99 0 0 1 .308-.146c.107-.047.222-.107.34-.179a.817.817 0 0 0 .311-.217.743.743 0 0 0 .215-.381.377.377 0 0 0 .038-.179c0-.071-.025-.181-.076-.325a.658.658 0 0 0-.361-.377zm1.134-4.315c.075.193.11.374.11.541 0 .373-.11.711-.326 1.013-.299.323-.606.516-.919.576h-.053a1.502 1.502 0 0 1-.505.107c-.449 0-.843-.131-1.191-.395a1.349 1.349 0 0 1-.635-.958v-.036a1.15 1.15 0 0 1-.033-.308c0-.372.115-.691.343-.955.216-.301.5-.51.848-.633.216-.07.428-.107.631-.107.374 0 .728.098 1.065.29.35.23.572.517.665.865zm1.41-9.128v.071c0 .398.156.729.468.994.329.275.687.414 1.083.414h.108a1.57 1.57 0 0 0 1.065-.414 1.59 1.59 0 0 0 .522-.994v-.071c0-.421-.173-.769-.522-1.046a1.429 1.429 0 0 0-1.102-.432c-.167 0-.306.01-.415.035-.349.071-.63.241-.845.504a1.296 1.296 0 0 0-.362.939zm4.979 7.237c0-.218-.063-.453-.181-.705-.169-.301-.428-.547-.776-.741a2.444 2.444 0 0 0-1.065-.251c-.349 0-.671.071-.971.216.492.397.938.823 1.332 1.28.398.458.729.968.994 1.535.169-.146.317-.32.452-.522.144-.244.215-.513.215-.812z"/>
</svg>
