<svg xmlns="http://www.w3.org/2000/svg" width="29" height="29" viewBox="0 0 29 29">
    <path fill="#FFF" fill-rule="nonzero" d="M14.483 0C6.472 0-.017 6.492-.017 14.5c0 6.408 4.154 11.842 9.914 13.757.725.136.991-.312.991-.697 0-.345-.012-1.257-.018-2.465-4.033.874-4.884-1.946-4.884-1.946-.66-1.673-1.613-2.12-1.613-2.12-1.314-.9.101-.881.101-.881 1.456.101 2.221 1.493 2.221 1.493 1.293 2.218 3.395 1.577 4.223 1.206.13-.938.504-1.577.919-1.94-3.22-.362-6.605-1.609-6.605-7.165 0-1.583.562-2.875 1.492-3.89-.163-.367-.652-1.84.127-3.838 0 0 1.215-.39 3.988 1.486a13.9 13.9 0 0 1 3.625-.49 13.9 13.9 0 0 1 3.625.49c2.755-1.875 3.97-1.486 3.97-1.486.778 1.997.29 3.471.144 3.838.924 1.015 1.486 2.307 1.486 3.89 0 5.57-3.39 6.797-6.615 7.154.507.435.978 1.324.978 2.682 0 1.94-.018 3.5-.018 3.97 0 .381.254.835.997.69 5.801-1.902 9.952-7.34 9.952-13.738 0-8.008-6.492-14.5-14.5-14.5"/>
</svg>
