<svg xmlns="http://www.w3.org/2000/svg" width="26" height="21" viewBox="0 0 26 21">
    <path fill="#FFF" fill-rule="nonzero" d="M25.394 2.424c-.409.178-.829.33-1.258.452A5.465 5.465 0 0 0 25.268.912a.41.41 0 0 0-.138-.45.424.424 0 0 0-.475-.032 9.976 9.976 0 0 1-2.926 1.14A5.65 5.65 0 0 0 17.823 0c-3.078 0-5.582 2.47-5.582 5.506 0 .24.016.477.046.712a14.348 14.348 0 0 1-9.808-5.134.421.421 0 0 0-.687.054 5.457 5.457 0 0 0 .572 6.338 4.76 4.76 0 0 1-.747-.33.424.424 0 0 0-.412.003.413.413 0 0 0-.21.35l-.001.073c0 1.98 1.08 3.763 2.732 4.735a4.874 4.874 0 0 1-.425-.06.423.423 0 0 0-.392.132.41.41 0 0 0-.086.4 5.552 5.552 0 0 0 4.089 3.69 9.974 9.974 0 0 1-5.278 1.487c-.396 0-.793-.023-1.182-.069a.42.42 0 0 0-.444.272.41.41 0 0 0 .168.487A15.202 15.202 0 0 0 8.316 21c5.682 0 9.237-2.644 11.218-4.861 2.471-2.766 3.888-6.426 3.888-10.042 0-.151-.002-.304-.007-.456a10.766 10.766 0 0 0 2.497-2.61.41.41 0 0 0-.027-.496.423.423 0 0 0-.491-.111z"/>
</svg>
