<svg xmlns="http://www.w3.org/2000/svg" width="29" height="29" viewBox="0 0 29 29">
    <path fill="#FFF" fill-rule="evenodd" d="M14.483 29c8.008 0 14.5-6.492 14.5-14.5S22.491 0 14.483 0s-14.5 6.492-14.5 14.5S6.475 29 14.483 29zm5.687-17.82c0-2.505-1.766-4.294-4.786-4.294h-5.166v15.862h5.546c2.908 0 4.899-1.812 4.899-4.317 0-1.768-1.051-3.376-2.863-3.824 1.387-.52 2.37-1.727 2.37-3.427zm-2.214.107c0 1.476-1.05 2.527-2.818 2.527H12.41v-5.01h2.64c1.812 0 2.907.984 2.907 2.483zm.465 7.005c0 1.542-1.203 2.527-2.97 2.527H12.41v-5.122h3.128c1.923 0 2.884 1.073 2.884 2.595z"/>
</svg>
