<svg xmlns="http://www.w3.org/2000/svg" width="17" height="14" viewBox="0 0 17 14">
    <path fill="#70707A" fill-rule="evenodd" d="M5.562 8.175c-.663 0-1.2.723-1.2 1.616 0 .892.537 1.615 1.2 1.615.664 0 1.202-.723 1.202-1.615 0-.893-.538-1.616-1.202-1.616m2.964 5.031h-.052c-3.485 0-6.198-.404-6.198-3.694 0-.788.285-1.519.966-2.126 1.135-1.012 3.054-.476 5.232-.476l.026-.001h.026c2.178 0 4.098-.535 5.232.477.68.607.966 1.338.966 2.126 0 3.29-2.713 3.694-6.198 3.694m7.093-9.233c.137-.328.143-2.19-.586-3.973 0 0-1.674.178-4.205 1.866-.532-.142-1.43-.214-2.328-.214-.899 0-1.796.071-2.328.214C3.64.178 1.967 0 1.967 0c-.73 1.783-.723 3.645-.586 3.973C.523 4.876 0 5.963 0 7.446c0 6.45 5.508 6.553 6.898 6.553L8.5 14h1.601C11.491 14 17 13.895 17 7.445c0-1.484-.524-2.57-1.381-3.473m-4.182 4.202c-.663 0-1.201.723-1.201 1.616 0 .892.538 1.615 1.2 1.615.664 0 1.202-.723 1.202-1.615 0-.893-.538-1.616-1.201-1.616"/>
</svg>
