<svg xmlns="http://www.w3.org/2000/svg" width="20" height="15" viewBox="0 0 20 15">
    <path fill="#70707A" fill-rule="nonzero" d="M19.309 6.553v.115c0 .417-.134.797-.4 1.139-.25.328-.562.578-.938.752a2.706 2.706 0 0 1 .048.513c0 .904-.322 1.72-.964 2.45a6.482 6.482 0 0 1-2.05 1.578c-.804.398-1.643.697-2.519.893-.474.092-.946.166-1.418.223-.47.058-.94.087-1.415.087-.722 0-1.434-.06-2.133-.178a11.97 11.97 0 0 1-2.036-.53 9.972 9.972 0 0 1-1.964-.968 5.322 5.322 0 0 1-1.544-1.482 3.665 3.665 0 0 1-.664-2.072c0-.077.005-.158.013-.246.01-.087.019-.169.037-.244-.395-.206-.7-.458-.916-.753C.164 7.472.014 7.1 0 6.713c0-.281.065-.548.198-.804.133-.254.306-.484.524-.689.232-.205.487-.364.766-.478.276-.115.58-.171.908-.171h.218c.33 0 .642.046.938.137.283.09.54.216.773.376a2.808 2.808 0 0 1 .24-.092 8.691 8.691 0 0 1 2.224-.78 17.528 17.528 0 0 1 2.368-.323c0-.344.033-.688.098-1.037.063-.35.196-.681.397-.991.16-.268.37-.493.627-.68.257-.185.549-.316.879-.392h.024c.25-.046.493-.068.736-.068.644 0 1.294.124 1.952.376.266-.37.633-.647 1.11-.82h.023a3.35 3.35 0 0 1 .845-.117c.33 0 .62.054.867.16h.026c.392.137.722.37.988.696.264.342.395.71.387 1.104 0 .092-.01.16-.024.207a1.748 1.748 0 0 1-.242.712 2.117 2.117 0 0 1-.495.55 2.393 2.393 0 0 1-1.506.514h-.276a2.242 2.242 0 0 1-1.424-.625 2.198 2.198 0 0 1-.444-.587 1.546 1.546 0 0 1-.17-.724v-.07c-.264-.09-.53-.172-.797-.245a3.159 3.159 0 0 0-.818-.108h-.217c-.459.045-.78.24-.965.582-.144.234-.239.489-.282.763a5.156 5.156 0 0 0-.069.82c.791.046 1.563.156 2.322.33a9.72 9.72 0 0 1 2.175.776l.025.022a.14.14 0 0 1 .097.046c.13-.092.237-.156.324-.193.409-.252.88-.373 1.411-.366.201 0 .415.023.639.069h.024c.488.122.92.36 1.29.717.36.35.567.765.615 1.243zm-16.045-.82a7.455 7.455 0 0 1-.318-.092c-.1-.03-.212-.045-.332-.045h-.12c-.297.03-.579.14-.843.33-.235.204-.36.445-.387.719v.068c0 .19.057.345.17.467a.904.904 0 0 0 .277.307c.183-.341.407-.657.667-.946.262-.288.558-.557.886-.809zm13.525 3.362c0-.312-.058-.612-.175-.902a3.774 3.774 0 0 0-.463-.82 5.112 5.112 0 0 0-1.508-1.243 8.435 8.435 0 0 0-1.88-.75l-.386-.092-.374-.09a12.239 12.239 0 0 0-2.324-.23c-1.087 0-2.123.138-3.11.41-.661.176-1.284.43-1.876.764-.59.334-1.095.751-1.512 1.253a2.581 2.581 0 0 0-.639 1.721c0 .25.032.467.096.65.147.479.411.922.797 1.333.379.357.81.682 1.3.979l.182.08.17.092c.69.342 1.426.591 2.21.746.783.156 1.577.234 2.381.234h.409c.134 0 .273-.007.409-.024.804-.06 1.592-.2 2.362-.42a8.171 8.171 0 0 0 2.146-.958 4.637 4.637 0 0 0 1.084-.98c.33-.387.547-.801.652-1.242a.62.62 0 0 0 .048-.24v-.271zM6.29 9.208c.113.045.237.067.374.067.313 0 .596-.098.844-.296.266-.204.398-.456.398-.75v-.07c0-.28-.125-.52-.373-.717a1.39 1.39 0 0 0-.869-.308.972.972 0 0 0-.24.023c-.217.03-.408.111-.572.245a1.04 1.04 0 0 0-.345.485.243.243 0 0 0-.049.147v.15c0 .25.073.47.219.66.16.183.363.303.613.364zm6.75 1.38a.769.769 0 0 0-.325-.092.733.733 0 0 0-.301.07 6.118 6.118 0 0 1-2.857.705 5.41 5.41 0 0 1-2.145-.422 1.118 1.118 0 0 1-.349-.216c-.033-.016-.068-.03-.107-.045l-.123-.045a.791.791 0 0 0-.217-.047.797.797 0 0 0-.216.047h-.027a.595.595 0 0 0-.276.204.529.529 0 0 0-.071.285c0 .09.024.185.071.283a.494.494 0 0 0 .218.183 5.844 5.844 0 0 0 3.036.822h.18c.53 0 1.046-.048 1.543-.143a6.738 6.738 0 0 0 1.654-.542c.072-.03.148-.068.227-.113a.547.547 0 0 0 .208-.137.463.463 0 0 0 .144-.24.227.227 0 0 0 .025-.114.658.658 0 0 0-.05-.205.427.427 0 0 0-.242-.238zm.758-2.725a.9.9 0 0 1 .073.341c0 .236-.073.45-.218.64-.2.204-.405.326-.614.364h-.035a1.054 1.054 0 0 1-.337.067c-.3 0-.564-.082-.796-.25a.851.851 0 0 1-.424-.604v-.023a.689.689 0 0 1-.022-.194c0-.235.076-.437.229-.604a1.15 1.15 0 0 1 .566-.4c.145-.044.286-.067.422-.067.25 0 .486.062.711.183.234.145.383.327.445.547zm.942-5.766v.045c0 .252.104.46.312.628.22.174.46.262.724.262h.072c.266 0 .502-.088.712-.262a.988.988 0 0 0 .348-.628v-.045c0-.265-.115-.485-.348-.66a.985.985 0 0 0-.737-.273 1.36 1.36 0 0 0-.277.022.964.964 0 0 0-.564.318.795.795 0 0 0-.242.593zm3.326 4.571c0-.137-.042-.286-.12-.445a1.27 1.27 0 0 0-.52-.468 1.711 1.711 0 0 0-.71-.159c-.234 0-.449.045-.65.137.33.25.627.52.89.808.266.29.488.612.665.97.112-.092.211-.202.302-.33a.946.946 0 0 0 .143-.513z"/>
</svg>
