<svg xmlns="http://www.w3.org/2000/svg" width="17" height="14" viewBox="0 0 17 14">
    <path fill="#70707A" fill-rule="nonzero" d="M16.492 1.597a6.39 6.39 0 0 1-.816.297c.33-.373.58-.812.734-1.293a.273.273 0 0 0-.398-.318 6.417 6.417 0 0 1-1.898.752A3.638 3.638 0 0 0 11.578 0a3.63 3.63 0 0 0-3.593 4.096A9.27 9.27 0 0 1 1.62.714a.272.272 0 0 0-.446.035 3.63 3.63 0 0 0-.49 1.824c0 .875.31 1.704.861 2.352a3.066 3.066 0 0 1-.484-.217.272.272 0 0 0-.405.232v.049c0 1.304.701 2.479 1.773 3.12a3.119 3.119 0 0 1-.275-.04.272.272 0 0 0-.31.35 3.623 3.623 0 0 0 2.653 2.432 6.402 6.402 0 0 1-3.426.979c-.256 0-.514-.015-.767-.045a.272.272 0 0 0-.179.5 9.759 9.759 0 0 0 5.283 1.55c3.688 0 5.995-1.741 7.281-3.202 1.604-1.822 2.523-4.234 2.523-6.616 0-.1-.001-.2-.004-.3a7.048 7.048 0 0 0 1.62-1.72.273.273 0 0 0-.336-.4z"/>
</svg>
