<svg xmlns="http://www.w3.org/2000/svg" xmlns:xlink="http://www.w3.org/1999/xlink" width="167" height="167" viewBox="0 0 167 167">
    <defs>
        <circle id="a" cx="83.5" cy="83.5" r="83.5"/>
        <circle id="d" cx="129.5" cy="166.5" r="65.5"/>
        <filter id="c" width="196.9%" height="196.9%" x="-48.5%" y="-34%" filterUnits="objectBoundingBox">
            <feMorphology in="SourceAlpha" radius="10" result="shadowSpreadOuter1"/>
            <feOffset dy="19" in="shadowSpreadOuter1" result="shadowOffsetOuter1"/>
            <feGaussianBlur in="shadowOffsetOuter1" result="shadowBlurOuter1" stdDeviation="28"/>
            <feColorMatrix in="shadowBlurOuter1" values="0 0 0 0 0 0 0 0 0 0 0 0 0 0 0 0 0 0 0.2 0"/>
        </filter>
        <circle id="f" cx="83.5" cy="83.5" r="83.5"/>
        <filter id="e" width="201.2%" height="201.2%" x="-50.6%" y="-39.2%" filterUnits="objectBoundingBox">
            <feMorphology in="SourceAlpha" radius="10" result="shadowSpreadOuter1"/>
            <feOffset dy="19" in="shadowSpreadOuter1" result="shadowOffsetOuter1"/>
            <feMorphology in="SourceAlpha" operator="dilate" radius="1" result="shadowInner"/>
            <feOffset dy="19" in="shadowInner" result="shadowInner"/>
            <feComposite in="shadowOffsetOuter1" in2="shadowInner" operator="out" result="shadowOffsetOuter1"/>
            <feGaussianBlur in="shadowOffsetOuter1" result="shadowBlurOuter1" stdDeviation="28"/>
            <feColorMatrix in="shadowBlurOuter1" values="0 0 0 0 0 0 0 0 0 0 0 0 0 0 0 0 0 0 0.2 0"/>
        </filter>
        <path id="g" d="M38.382 0L.374 66.688l86.281-13.832V5z"/>
    </defs>
    <g fill="none" fill-rule="evenodd">
        <g>
            <mask id="b" fill="#fff">
                <use xlink:href="#a"/>
            </mask>
            <use fill="#D6D6E0" xlink:href="#a"/>
            <g mask="url(#b)">
                <use fill="#000" filter="url(#c)" xlink:href="#d"/>
                <use fill="#4B6BDC" xlink:href="#d"/>
            </g>
        </g>
        <g>
            <use fill="#000" filter="url(#e)" xlink:href="#f"/>
            <circle cx="83.5" cy="83.5" r="79" stroke="#FFF" stroke-linejoin="square" stroke-width="9"/>
        </g>
        <path fill="#858399" d="M9 26h43a3 3 0 0 1 3 3v51.632L42.3 93H9a3 3 0 0 1-3-3V29a3 3 0 0 1 3-3z"/>
        <path stroke="#FFF" stroke-linecap="round" stroke-width="2" d="M16.5 39.5h17.166M16.778 49H43.48M16.778 59H43.48M16.778 69H43.48"/>
        <g fill="#5E4DAC">
            <path d="M3 18h43a3 3 0 0 1 3 3v51.632L36.3 85H3a3 3 0 0 1-3-3V21a3 3 0 0 1 3-3z"/>
        </g>
        <path stroke="#FFF" stroke-linecap="round" stroke-width="4.5" d="M16 51.854l5.92 5.447 9.374-13"/>
        <g>
            <g transform="translate(31 34.313)">
                <mask id="h" fill="#fff">
                    <use xlink:href="#g"/>
                </mask>
                <path stroke="#080022" stroke-dasharray="6" stroke-width="3" d="M-3 140.687c35.899 0 65-29.102 65-65 0-35.899-29.101-65-65-65s-65 29.101-65 65c0 35.898 29.101 65 65 65z" mask="url(#h)"/>
            </g>
            <path fill="#080022" d="M97.464 83.798l-1.46 17.848-13.45-11.824z"/>
        </g>
    </g>
</svg>
