<svg xmlns="http://www.w3.org/2000/svg" xmlns:xlink="http://www.w3.org/1999/xlink" width="178" height="167" viewBox="0 0 178 167">
    <defs>
        <path id="a" d="M13 .687L.374 66.688l69.52-34.9L86.656 5z"/>
    </defs>
    <g fill="none" fill-rule="evenodd">
        <g transform="translate(7)">
            <circle cx="83.5" cy="83.5" r="79" fill="#D6D6E0" stroke="#FFF" stroke-width="9"/>
            <path fill="#858399" d="M112 17h43a3 3 0 0 1 3 3v51.632L145.3 84H112a3 3 0 0 1-3-3V20a3 3 0 0 1 3-3z"/>
            <path stroke="#FFF" stroke-linecap="round" stroke-width="2" d="M119.5 30.5h17.166M119.778 40h26.702M119.778 50h26.702M119.778 60h26.702"/>
            <g>
                <path fill="#080022" d="M125 36h43a3 3 0 0 1 3 3v51.632L158.3 103H125a3 3 0 0 1-3-3V39a3 3 0 0 1 3-3z"/>
                <path stroke="#FFF" stroke-linecap="round" stroke-width="2" d="M132.5 49.5h17.166M132.778 59h26.702M132.778 69h26.702M132.778 79h26.702"/>
            </g>
        </g>
        <path fill="#4B6BDC" d="M21.859 84.183a25.891 25.891 0 0 1 3.386-1.404L28.537 74h9.926l3.292 8.78c1.168.39 2.299.86 3.386 1.403l8.538-3.88 7.018 7.018-3.88 8.538a25.891 25.891 0 0 1 1.404 3.386L67 102.537v9.926l-8.78 3.292a25.891 25.891 0 0 1-1.403 3.386l3.88 8.538-7.018 7.018-8.538-3.88a25.891 25.891 0 0 1-3.386 1.404L38.463 141h-9.926l-3.292-8.78a25.891 25.891 0 0 1-3.386-1.403l-8.538 3.88-7.018-7.018 3.88-8.538a25.891 25.891 0 0 1-1.404-3.386L0 112.463v-9.926l8.78-3.292c.39-1.168.86-2.299 1.403-3.386l-3.88-8.538 7.018-7.018 8.538 3.88zM33.5 121c7.456 0 13.5-6.044 13.5-13.5S40.956 94 33.5 94 20 100.044 20 107.5 26.044 121 33.5 121z"/>
        <path fill="#5E4DAC" d="M89.107 111.793a20.095 20.095 0 0 1 2.844.074l5.105-5.186 7.038 3.134-.437 7.264a20.095 20.095 0 0 1 1.957 2.064l7.279-.057 2.76 7.192-5.446 4.829c.042.942.019 1.893-.074 2.844l5.186 5.105-3.134 7.038-7.264-.437a20.095 20.095 0 0 1-2.064 1.957l.057 7.279-7.192 2.76-4.829-5.446c-.942.042-1.893.019-2.844-.074l-5.105 5.186-7.038-3.134.437-7.264a20.095 20.095 0 0 1-1.957-2.064l-7.279.057-2.76-7.192 5.446-4.829a20.095 20.095 0 0 1 .074-2.844l-5.186-5.105 3.134-7.038 7.264.437a20.095 20.095 0 0 1 2.064-1.957l-.057-7.279 7.192-2.76 4.829 5.446zm-4.038 30.053c5.298 2.358 11.504-.024 13.863-5.322s-.024-11.504-5.321-13.863c-5.298-2.358-11.505.024-13.863 5.322-2.359 5.297.023 11.504 5.321 13.863z"/>
        <g>
            <g transform="rotate(-98 79.3 25.202)">
                <mask id="b" fill="#fff">
                    <use xlink:href="#a"/>
                </mask>
                <path stroke="#080022" stroke-dasharray="6" stroke-width="3" d="M-9.467 124.78c33.137 0 60-26.863 60-60s-26.863-60-60-60-60 26.863-60 60 26.863 60 60 60z" mask="url(#b)"/>
            </g>
            <path fill="#080022" d="M91.766 51.565l17.877-1.037-9.836 14.964z"/>
        </g>
    </g>
</svg>
