<svg xmlns="http://www.w3.org/2000/svg" xmlns:xlink="http://www.w3.org/1999/xlink" width="174" height="167" viewBox="0 0 174 167">
    <defs>
        <path id="a" d="M13 .687L.374 66.688l69.52-34.9L86.656 5z"/>
    </defs>
    <g fill="none" fill-rule="evenodd">
        <circle cx="83.5" cy="83.5" r="79" fill="#D6D6E0" stroke="#FFF" stroke-width="9"/>
        <g fill="#080022">
            <path d="M152.141 76.183a25.891 25.891 0 0 0-3.386-1.404L145.463 66h-9.926l-3.292 8.78c-1.168.39-2.299.86-3.386 1.403l-8.538-3.88-7.018 7.018 3.88 8.538a25.891 25.891 0 0 0-1.404 3.386L107 94.537v9.926l8.78 3.292c.39 1.168.86 2.299 1.403 3.386l-3.88 8.538 7.018 7.018 8.538-3.88a25.891 25.891 0 0 0 3.386 1.404l3.292 8.779h9.926l3.292-8.78c1.168-.39 2.299-.86 3.386-1.403l8.538 3.88 7.018-7.018-3.88-8.538a25.891 25.891 0 0 0 1.404-3.386l8.779-3.292v-9.926l-8.78-3.292a25.891 25.891 0 0 0-1.403-3.386l3.88-8.538-7.018-7.018-8.538 3.88zM140.5 113c-7.456 0-13.5-6.044-13.5-13.5S133.044 86 140.5 86 154 92.044 154 99.5s-6.044 13.5-13.5 13.5zM84.893 103.793a20.095 20.095 0 0 0-2.844.074l-5.105-5.186-7.038 3.134.437 7.264a20.095 20.095 0 0 0-1.957 2.064l-7.279-.057-2.76 7.192 5.446 4.829c-.042.942-.019 1.893.074 2.844l-5.186 5.105 3.134 7.038 7.264-.437a20.095 20.095 0 0 0 2.064 1.957l-.057 7.279 7.192 2.76 4.829-5.446c.942.042 1.893.019 2.844-.074l5.105 5.186 7.038-3.134-.437-7.264a20.095 20.095 0 0 0 1.957-2.064l7.279.057 2.76-7.192-5.446-4.829c.042-.942.019-1.893-.074-2.844l5.186-5.105-3.134-7.038-7.264.437a20.095 20.095 0 0 0-2.064-1.957l.057-7.279-7.192-2.76-4.829 5.446zm4.038 30.053c-5.298 2.358-11.504-.024-13.863-5.322s.024-11.504 5.321-13.863c5.298-2.358 11.505.024 13.863 5.322 2.359 5.297-.023 11.504-5.321 13.863z"/>
        </g>
        <g stroke="#FFF" stroke-linecap="round" stroke-width="2">
            <path d="M17.5 40.5h17.166M17.778 50H44.48M17.778 60H44.48M17.778 70H44.48"/>
        </g>
        <path fill="#858399" d="M12 28h43a3 3 0 0 1 3 3v51.632L45.3 95H12a3 3 0 0 1-3-3V31a3 3 0 0 1 3-3z"/>
        <path fill="#4B6BDC" d="M4 19h43a3 3 0 0 1 3 3v51.632L37.3 86H4a3 3 0 0 1-3-3V22a3 3 0 0 1 3-3z"/>
        <path stroke="#FFF" stroke-linecap="round" stroke-width="2" d="M11.5 32.5h17.166M11.778 42H38.48M11.778 52H38.48M11.778 62H38.48"/>
        <g>
            <g transform="rotate(-9 296.712 -259.802)">
                <mask id="b" fill="#fff">
                    <use xlink:href="#a"/>
                </mask>
                <path stroke="#080022" stroke-dasharray="6" stroke-width="3" d="M-9.467 124.78c33.137 0 60-26.863 60-60s-26.863-60-60-60-60 26.863-60 60 26.863 60 60 60z" mask="url(#b)"/>
            </g>
            <path fill="#080022" d="M100.42 68.628l1.35 17.856-15.134-9.574z"/>
        </g>
    </g>
</svg>
