<svg xmlns="http://www.w3.org/2000/svg" width="375" height="246" viewBox="0 0 375 246">
    <g fill="none" fill-rule="evenodd" opacity=".11">
        <g transform="rotate(-108 105.968 185.253)">
            <ellipse cx="100.373" cy="101.831" stroke="#FFF" stroke-width="5" rx="78.5" ry="79"/>
            <ellipse cx="100.234" cy="100.841" stroke="#FFF" stroke-width="5" rx="97.5" ry="98"/>
            <ellipse cx="101.364" cy="101.692" stroke="#FFF" stroke-width="5" rx="57.5" ry="58"/>
            <circle cx="100.868" cy="101.761" r="35.5" stroke="#FFF" stroke-width="5"/>
            <path stroke="#FFF" stroke-linecap="square" stroke-width="5" d="M58.488 144.004l-15.449 14.423M159.081 109.103l-19.857-3.833"/>
            <path fill="#080022" d="M49.735 95.469c0-.299-4.02-1.494-12.061-3.585l7.669-26.91 24.259-19.053 33.108-11.447 24.916 9.69 21.048 13.211-17.264 9.317L96.152 50.64l-30.835 6.736C54.93 83.07 49.735 95.768 49.735 95.47zM130.815 117.377l6.186 6.03-22.203 20.51-34.772-.925-18.07-23.356L58 102.18l13.561-4.264 8.464 23.989 30.516 6.05 20.273-10.578zM184.886 134.74l10.603 6.854-13.585 25.145-10.415-7.952zM163.44 164.997l16.282 12.8-20.008 7.406-5.18-13.963zM124.748 187.938l11.839 11.098-58.017 8.447-41.83-18.245L50.68 170.66l32.953 17.03z"/>
        </g>
        <g transform="rotate(-97 292.267 -29.96)">
            <circle cx="144" cy="144" r="142" stroke="#FFF" stroke-width="4"/>
            <circle cx="144.5" cy="144.5" r="104.5" stroke="#FFF" stroke-width="4"/>
            <path fill="#080022" d="M53.981 132.292c0-.528-7.112-2.64-21.336-6.334L46.21 78.424l42.913-33.657 58.568-20.221 44.076 17.118L229 65l-30.54 16.458-62.37-28.357L81.546 65c-18.376 45.389-27.564 67.82-27.564 67.292z"/>
        </g>
    </g>
</svg>
