<svg xmlns="http://www.w3.org/2000/svg" width="116" height="84" viewBox="0 0 116 84">
    <g fill="none" fill-rule="evenodd">
        <path fill="#080022" d="M94.141 10.183a25.891 25.891 0 0 0-3.386-1.404L87.463 0h-9.926l-3.292 8.78c-1.168.39-2.299.86-3.386 1.403l-8.538-3.88-7.018 7.018 3.88 8.538a25.891 25.891 0 0 0-1.404 3.386L49 28.537v9.926l8.78 3.292c.39 1.168.86 2.299 1.403 3.386l-3.88 8.538 7.018 7.018 8.538-3.88a25.891 25.891 0 0 0 3.386 1.404L77.537 67h9.926l3.292-8.78c1.168-.39 2.299-.86 3.386-1.403l8.538 3.88 7.018-7.018-3.88-8.538a25.891 25.891 0 0 0 1.404-3.386L116 38.463v-9.926l-8.78-3.292a25.891 25.891 0 0 0-1.403-3.386l3.88-8.538-7.018-7.018-8.538 3.88zM82.5 47C75.044 47 69 40.956 69 33.5S75.044 20 82.5 20 96 26.044 96 33.5 89.956 47 82.5 47z"/>
        <path fill="#4B6BDC" d="M26.893 37.793a20.095 20.095 0 0 0-2.844.074l-5.105-5.186-7.038 3.134.437 7.264a20.095 20.095 0 0 0-1.957 2.064l-7.279-.057-2.76 7.192 5.446 4.829c-.042.942-.019 1.893.074 2.844L.68 65.056l3.134 7.038 7.264-.437a20.095 20.095 0 0 0 2.064 1.957l-.057 7.279 7.192 2.76 4.829-5.446c.942.042 1.893.019 2.844-.074l5.105 5.186 7.038-3.134-.437-7.264a20.095 20.095 0 0 0 1.957-2.064l7.279.057 2.76-7.192-5.446-4.829c.042-.942.019-1.893-.074-2.844l5.186-5.105-3.134-7.038-7.264.437a20.095 20.095 0 0 0-2.064-1.957l.057-7.279-7.192-2.76-4.829 5.446zm4.038 30.053c-5.298 2.358-11.504-.024-13.863-5.322s.024-11.504 5.321-13.863c5.298-2.358 11.505.024 13.863 5.322 2.359 5.297-.023 11.504-5.321 13.863z"/>
    </g>
</svg>
