<svg xmlns="http://www.w3.org/2000/svg" width="66" height="84" viewBox="0 0 66 64">
    <g fill="none" fill-rule="evenodd">
        <path fill="#4B6BDC" d="M45.949 25.927h9.19V62.95h-9.19z"/>
        <g fill="#4B6BDC">
            <path d="M25.95 50.951H40.08v12H25.95zM25.95 19.951H40.08v12H25.95z"/>
        </g>
        <g fill="#4B6BDC">
            <path d="M43.95 50.951h13.19v12H43.95zM43.95 19.951h13.19v12H43.95z"/>
        </g>
        <g fill="#4B6BDC">
            <path d="M8.95 50.951h13.19v12H8.95zM8.95 19.951h13.19v12H8.95z"/>
        </g>
        <path fill="#4B6BDC" d="M28.405 25.927h9.19V62.95h-9.19zM10.861 25.927h9.19V62.95h-9.19z"/>
        <path fill="#080022" d="M1 54.585h64a1 1 0 0 1 1 1V63a1 1 0 0 1-1 1H1a1 1 0 0 1-1-1v-7.415a1 1 0 0 1 1-1zM35.753.816l29.348 19.359a2 2 0 0 1 .899 1.67v6.606H0v-6.607a2 2 0 0 1 .899-1.67L30.247.817a5 5 0 0 1 5.506 0z"/>
    </g>
</svg>
