<svg xmlns="http://www.w3.org/2000/svg" width="80" height="84" viewBox="0 0 80 75">
    <g fill="none" fill-rule="evenodd">
        <g transform="translate(32 36.885)">
            <path fill="#D1CFDD" d="M24 25.82c13.255 0 24-4.68 24-10.451 0-.9-.142-2.539-.425-4.918C38.629 6.762 30.77 4.918 24 4.918c-6.578 0-14.332 1.844-23.263 5.533C.246 12.746 0 14.385 0 15.369c0 5.772 10.745 10.45 24 10.45z"/>
            <ellipse cx="24" cy="10.451" fill="#080022" rx="24" ry="10.451"/>
        </g>
        <g transform="translate(32 24.59)">
            <path fill="#D1CFDD" d="M24 25.82c13.255 0 24-4.68 24-10.451 0-.9-.142-2.539-.425-4.918C38.629 6.762 30.77 4.918 24 4.918c-6.578 0-14.332 1.844-23.263 5.533C.246 12.746 0 14.385 0 15.369c0 5.772 10.745 10.45 24 10.45z"/>
            <ellipse cx="24" cy="10.451" fill="#080022" rx="24" ry="10.451"/>
        </g>
        <g transform="translate(0 49.18)">
            <path fill="#D1CFDD" d="M24 25.82c13.255 0 24-4.68 24-10.451 0-.9-.142-2.539-.425-4.918C38.629 6.762 30.77 4.918 24 4.918c-6.578 0-14.332 1.844-23.263 5.533C.246 12.746 0 14.385 0 15.369c0 5.772 10.745 10.45 24 10.45z"/>
            <ellipse cx="24" cy="10.451" fill="#080022" rx="24" ry="10.451"/>
        </g>
        <g transform="translate(0 36.885)">
            <path fill="#D1CFDD" d="M24 25.82c13.255 0 24-4.68 24-10.451 0-.9-.142-2.539-.425-4.918C38.629 6.762 30.77 4.918 24 4.918c-6.578 0-14.332 1.844-23.263 5.533C.246 12.746 0 14.385 0 15.369c0 5.772 10.745 10.45 24 10.45z"/>
            <ellipse cx="24" cy="10.451" fill="#080022" rx="24" ry="10.451"/>
        </g>
        <g transform="translate(0 24.59)">
            <path fill="#D1CFDD" d="M24 25.82c13.255 0 24-4.68 24-10.451 0-.9-.142-2.539-.425-4.918C38.629 6.762 30.77 4.918 24 4.918c-6.578 0-14.332 1.844-23.263 5.533C.246 12.746 0 14.385 0 15.369c0 5.772 10.745 10.45 24 10.45z"/>
            <ellipse cx="24" cy="10.451" fill="#080022" rx="24" ry="10.451"/>
        </g>
        <g transform="translate(0 12.295)">
            <path fill="#D1CFDD" d="M24 25.82c13.255 0 24-4.68 24-10.451 0-.9-.142-2.539-.425-4.918C38.629 6.762 30.77 4.918 24 4.918c-6.578 0-14.332 1.844-23.263 5.533C.246 12.746 0 14.385 0 15.369c0 5.772 10.745 10.45 24 10.45z"/>
            <ellipse cx="24" cy="10.451" fill="#080022" rx="24" ry="10.451"/>
        </g>
        <g>
            <path fill="#D1CFDD" d="M24 25.82c13.255 0 24-4.68 24-10.451 0-.9-.142-2.539-.425-4.918C38.629 6.762 30.77 4.918 24 4.918c-6.578 0-14.332 1.844-23.263 5.533C.246 12.746 0 14.385 0 15.369c0 5.772 10.745 10.45 24 10.45z"/>
            <ellipse cx="24" cy="10.451" fill="#080022" rx="24" ry="10.451"/>
        </g>
    </g>
</svg>
