<svg xmlns="http://www.w3.org/2000/svg" xmlns:xlink="http://www.w3.org/1999/xlink" width="331" height="159" viewBox="0 0 331 159">
    <defs>
        <path id="b" d="M3 0h325a3 3 0 0 1 3 3v153a3 3 0 0 1-3 3H3a3 3 0 0 1-3-3V3a3 3 0 0 1 3-3z"/>
        <filter id="d" width="204.7%" height="193.1%" x="-52.3%" y="-46.5%" filterUnits="objectBoundingBox">
            <feMorphology in="SourceAlpha" radius="10" result="shadowSpreadOuter1"/>
            <feOffset dy="19" in="shadowSpreadOuter1" result="shadowOffsetOuter1"/>
            <feGaussianBlur in="shadowOffsetOuter1" result="shadowBlurOuter1" stdDeviation="28"/>
            <feColorMatrix in="shadowBlurOuter1" result="shadowMatrixOuter1" values="0 0 0 0 0 0 0 0 0 0 0 0 0 0 0 0 0 0 0.2 0"/>
            <feMerge>
                <feMergeNode in="shadowMatrixOuter1"/>
                <feMergeNode in="SourceGraphic"/>
            </feMerge>
        </filter>
        <rect id="e" width="257" height="289" rx="3"/>
        <path id="g" d="M57.206.189L.077 26.504l4.871 40.271L127.843 82.37l18.935-28.898z"/>
        <ellipse id="a" cx="55.864" cy="167.143" rx="133.824" ry="133.776"/>
        <mask id="i" width="267.648" height="267.552" x="0" y="0" fill="#fff">
            <use xlink:href="#a"/>
        </mask>
    </defs>
    <g fill="none" fill-rule="evenodd">
        <mask id="c" fill="#fff">
            <use xlink:href="#b"/>
        </mask>
        <use fill="#201C3C" xlink:href="#b"/>
        <g mask="url(#c)" opacity=".143">
            <g transform="translate(50 -107)">
                <g filter="url(#d)" transform="translate(24)">
                    <mask id="f" fill="#fff">
                        <use xlink:href="#e"/>
                    </mask>
                    <use fill="#1A1637" xlink:href="#e"/>
                    <g mask="url(#f)">
                        <g transform="translate(93.95 144.5)">
                            <ellipse cx="89.919" cy="90.098" stroke="#FFF" stroke-width="3" rx="88.419" ry="88.598"/>
                            <g transform="translate(24.747 25.44)">
                                <ellipse cx="64.851" cy="65.719" stroke="#FFF" stroke-width="3" rx="63.351" ry="64.219"/>
                                <ellipse cx="64.851" cy="65.719" stroke="#FFF" stroke-width="3" rx="45.664" ry="46.295"/>
                                <path fill="#1A1637" d="M91.381 41.992l15.802-7.08 12.202 30.807-22.686 42.055-32.585 12.66-6.127-24.713 38.712-15.44z"/>
                            </g>
                            <path fill="#1A1637" d="M130.487 34.04l-9.04 12.28 16.53 23.188 16.472-5.836zM23.273 83.827l11.054 3.597 4.11-13.442-13.69-6.55z"/>
                            <path stroke="#FFF" stroke-linecap="square" stroke-width="3" d="M25.76 85.304l17.578.607"/>
                        </g>
                    </g>
                    <path fill="#5E4DAC" d="M254.575 12.75h4.243v329.071h-4.243z" mask="url(#f)"/>
                    <ellipse cx="54.552" cy="404.357" stroke="#FFF" stroke-width="3" mask="url(#f)" opacity=".169" rx="160.943" ry="161.214"/>
                    <ellipse cx="261.849" cy="4.857" fill="#F3F3F3" stroke="#FFF" stroke-width="3" mask="url(#f)" opacity=".026" rx="160.943" ry="161.214"/>
                    <ellipse cx="254.575" cy="112.929" fill="#1F1A40" stroke="#FFF" stroke-width="3" mask="url(#f)" rx="17.896" ry="17.929"/>
                    <ellipse cx="73.948" cy="167.571" fill="#1F1A40" stroke="#FFF" stroke-width="3" mask="url(#f)" rx="17.896" ry="17.929"/>
                    <ellipse cx="155.776" cy="325.429" stroke="#FFF" stroke-width="3" mask="url(#f)" opacity=".197" rx="239.741" ry="240.143"/>
                    <ellipse cx="291.246" cy="226.768" stroke="#5E4DAC" stroke-width="23" mask="url(#f)" opacity=".083" rx="236.711" ry="237.125"/>
                </g>
                <g stroke="#FFF" stroke-linecap="square" stroke-width="3">
                    <path d="M269.848 129.985l-16.972 25.53M247.118 42.456L225.6 146.397M186.2 88.348l8.183 57.897M113.16 179.22l16.063 12.69M53.455 226.025l64.251 5.888"/>
                </g>
                <circle cx="30.5" cy="228.5" r="21" fill="#1F1A40" stroke="#FFF" stroke-width="3"/>
                <g transform="rotate(34 8.098 145.97)">
                    <mask id="h" fill="#fff">
                        <use xlink:href="#g"/>
                    </mask>
                    <g stroke="#FFF" stroke-dasharray="7,9" stroke-width="6" mask="url(#h)">
                        <use mask="url(#i)" xlink:href="#a"/>
                    </g>
                </g>
            </g>
        </g>
    </g>
</svg>
