<svg xmlns="http://www.w3.org/2000/svg" width="42" height="42" viewBox="0 0 42 42">
    <path fill="#FFF" fill-rule="nonzero" d="M21 41.167C9.862 41.167.833 32.137.833 21 .833 9.862 9.863.833 21 .833 32.138.833 41.167 9.863 41.167 21c0 11.138-9.03 20.167-20.167 20.167zm0-3.667c9.113 0 16.5-7.387 16.5-16.5S30.113 4.5 21 4.5 4.5 11.887 4.5 21 11.887 37.5 21 37.5zm9.513-23.694l-3.887 11.66a1.833 1.833 0 0 1-1.16 1.16l-11.66 3.887c-1.433.477-2.796-.886-2.319-2.32l3.887-11.66a1.833 1.833 0 0 1 1.16-1.159l11.66-3.887c1.433-.477 2.796.886 2.319 2.32zm-11.95 4.757l-2.438 7.312 7.312-2.438 2.438-7.312-7.312 2.438z"/>
</svg>
