<svg xmlns="http://www.w3.org/2000/svg" xmlns:xlink="http://www.w3.org/1999/xlink" width="623" height="648" viewBox="0 0 623 648">
    <defs>
        <filter id="b" width="163.4%" height="150.2%" x="-31.7%" y="-25.1%" filterUnits="objectBoundingBox">
            <feMorphology in="SourceAlpha" radius="10" result="shadowSpreadOuter1"/>
            <feOffset dy="19" in="shadowSpreadOuter1" result="shadowOffsetOuter1"/>
            <feGaussianBlur in="shadowOffsetOuter1" result="shadowBlurOuter1" stdDeviation="28"/>
            <feColorMatrix in="shadowBlurOuter1" result="shadowMatrixOuter1" values="0 0 0 0 0 0 0 0 0 0 0 0 0 0 0 0 0 0 0.2 0"/>
            <feMerge>
                <feMergeNode in="shadowMatrixOuter1"/>
                <feMergeNode in="SourceGraphic"/>
            </feMerge>
        </filter>
        <rect id="c" width="424" height="536" rx="3"/>
        <circle id="f" cx="53" cy="53" r="38"/>
        <filter id="e" width="217.1%" height="217.1%" x="-58.6%" y="-40.1%" filterUnits="objectBoundingBox">
            <feMorphology in="SourceAlpha" radius="7" result="shadowSpreadOuter1"/>
            <feOffset dy="14" in="shadowSpreadOuter1" result="shadowOffsetOuter1"/>
            <feGaussianBlur in="shadowOffsetOuter1" result="shadowBlurOuter1" stdDeviation="19.5"/>
            <feColorMatrix in="shadowBlurOuter1" values="0 0 0 0 0 0 0 0 0 0 0 0 0 0 0 0 0 0 0.2 0"/>
        </filter>
        <circle id="h" cx="53" cy="53" r="53"/>
        <filter id="g" width="214.2%" height="214.2%" x="-57.1%" y="-43.9%" filterUnits="objectBoundingBox">
            <feMorphology in="SourceAlpha" radius="7" result="shadowSpreadOuter1"/>
            <feOffset dy="14" in="shadowSpreadOuter1" result="shadowOffsetOuter1"/>
            <feMorphology in="SourceAlpha" operator="dilate" radius="2" result="shadowInner"/>
            <feOffset dy="14" in="shadowInner" result="shadowInner"/>
            <feComposite in="shadowOffsetOuter1" in2="shadowInner" operator="out" result="shadowOffsetOuter1"/>
            <feGaussianBlur in="shadowOffsetOuter1" result="shadowBlurOuter1" stdDeviation="19.5"/>
            <feColorMatrix in="shadowBlurOuter1" values="0 0 0 0 0 0 0 0 0 0 0 0 0 0 0 0 0 0 0.2 0"/>
        </filter>
        <path id="i" d="M90 0L0 35l29 60 186.952 82.418 39.793-26.841z"/>
        <circle id="a" cx="85.511" cy="297.808" r="195.5"/>
        <mask id="k" width="391" height="391" x="0" y="0" fill="#fff">
            <use xlink:href="#a"/>
        </mask>
    </defs>
    <g fill="none" fill-rule="evenodd">
        <g filter="url(#b)" transform="translate(143 37)">
            <mask id="d" fill="#fff">
                <use xlink:href="#c"/>
            </mask>
            <use fill="#1A1637" xlink:href="#c"/>
            <path fill="#5E4DAC" d="M420 1h7v542h-7z" mask="url(#d)"/>
            <g mask="url(#d)">
                <g transform="matrix(-1 0 0 1 626 283)">
                    <rect width="70" height="70" x="152.5" y="1.5" stroke="#FFF" stroke-width="3" opacity=".753" rx="3"/>
                    <g transform="translate(446 203)">
                        <rect width="24" height="24" x="41" y="1" stroke="#FFF" stroke-width="2" opacity=".443" rx="3"/>
                        <rect width="24" height="24" x="1" y="1" stroke="#FFF" stroke-width="2" opacity=".277" rx="3"/>
                        <rect width="24" height="24" x="120" y="1" stroke="#FFF" stroke-width="2" opacity=".443" rx="3"/>
                        <rect width="26" height="26" x="79" fill="#F3F3F3" opacity=".285" rx="3"/>
                    </g>
                    <rect width="73" height="73" x="242" fill="#FFF" opacity=".319" rx="3"/>
                    <rect width="44" height="44" x="438" y="14" fill="#F3F3F3" opacity=".319" rx="3"/>
                    <rect width="70" height="70" x="334.5" y="1.5" stroke="#FFF" stroke-width="3" opacity=".636" rx="3"/>
                    <rect width="70" height="70" x="425.5" y="1.5" stroke="#E0EE6B" stroke-width="3" rx="3"/>
                    <rect width="70" height="70" x="334.5" y="93.5" stroke="#FFF" stroke-width="3" rx="3"/>
                    <rect width="70" height="70" x="425.5" y="93.5" stroke="#FFF" stroke-width="3" opacity=".788" rx="3"/>
                    <rect width="70" height="70" x="516.5" y="93.5" stroke="#FFF" stroke-width="3" opacity=".636" rx="3"/>
                </g>
                <path stroke="#FFF" stroke-linecap="square" stroke-width="3" d="M129 470h241" opacity=".756"/>
                <path stroke="#C1C2D0" stroke-linecap="square" stroke-width="3" d="M307 264h191"/>
                <path stroke="#4B6BDC" stroke-linecap="square" stroke-width="3" d="M107 356.467v-26.865M107 356.467H78.574"/>
                <g stroke-linecap="square" stroke-width="3">
                    <path stroke="#FFF" d="M384 470h20.125M96.28 470h14.282M50.7 470h14.283" opacity=".756"/>
                    <path stroke="#4B6BDC" d="M418.438 470h20.125"/>
                    <path stroke="#FFF" d="M452.438 470H507" opacity=".756"/>
                </g>
            </g>
            <circle cx="90" cy="646" r="266.5" stroke="#FFF" stroke-width="3" mask="url(#d)" opacity=".169"/>
            <circle cx="432" cy="-12" r="266.5" fill="#F3F3F3" stroke="#FFF" stroke-width="3" mask="url(#d)" opacity=".026"/>
            <circle cx="257" cy="516" r="396.5" stroke="#FFF" stroke-width="3" mask="url(#d)" opacity=".197"/>
            <circle cx="480.5" cy="353.5" r="398" stroke="#5E4DAC" stroke-width="23" mask="url(#d)" opacity=".083"/>
        </g>
        <g transform="translate(85 78)">
            <rect width="93" height="152" x="10" y="6" fill="#5E4DAC" rx="3"/>
            <path stroke="#FFF" stroke-width="3" d="M68.206 150.5L91.5 123.386V3A1.5 1.5 0 0 0 90 1.5H3A1.5 1.5 0 0 0 1.5 3v146a1.5 1.5 0 0 0 1.5 1.5h65.206z"/>
            <text fill="#FFF" font-family="OpenSans-Regular, Open Sans" font-size="14">
                <tspan x="18.267" y="61">0xpq19a</tspan> <tspan x="18" y="83">0xft6a34</tspan>
            </text>
            <rect width="9" height="9" x="9" y="133" fill="#FFF" opacity=".8" rx="2"/>
            <rect width="9" height="9" x="23" y="133" fill="#FFF" opacity=".8" rx="2"/>
            <rect width="9" height="9" x="37" y="133" fill="#FFF" opacity=".232" rx="3"/>
        </g>
        <g transform="translate(8 101)">
            <use fill="#000" filter="url(#e)" xlink:href="#f"/>
            <use fill="#4B6BDC" xlink:href="#f"/>
        </g>
        <g opacity=".154" transform="translate(8 101)">
            <use fill="#000" filter="url(#g)" xlink:href="#h"/>
            <circle cx="53" cy="53" r="50.5" stroke="#FFF" stroke-linejoin="square" stroke-width="5"/>
        </g>
        <path stroke="#FFF" stroke-width="5" d="M47 155.475L56.522 164 75 143"/>
        <g transform="rotate(34 27.217 355.022)">
            <mask id="j" fill="#fff">
                <use xlink:href="#i"/>
            </mask>
            <g stroke="#FFF" stroke-dasharray="7,9" stroke-width="6" mask="url(#j)">
                <use mask="url(#k)" xlink:href="#a"/>
            </g>
        </g>
    </g>
</svg>
