<svg xmlns="http://www.w3.org/2000/svg" xmlns:xlink="http://www.w3.org/1999/xlink" width="44" height="38" viewBox="0 0 44 38">
    <defs>
        <path id="a" d="M33 35.5a1.833 1.833 0 0 1-3.667 0v-3.667a5.5 5.5 0 0 0-5.5-5.5H9.167a5.5 5.5 0 0 0-5.5 5.5V35.5A1.833 1.833 0 0 1 0 35.5v-3.667a9.167 9.167 0 0 1 9.167-9.166h14.666A9.167 9.167 0 0 1 33 31.833V35.5zM16.5 19a9.167 9.167 0 1 1 0-18.333A9.167 9.167 0 0 1 16.5 19zM44 35.5a1.833 1.833 0 0 1-3.667 0v-3.665a5.5 5.5 0 0 0-4.125-5.322 1.833 1.833 0 1 1 .917-3.55A9.167 9.167 0 0 1 44 31.833V35.5zM28.879 4.514a1.833 1.833 0 0 1 .91-3.552 9.167 9.167 0 0 1 0 17.76 1.833 1.833 0 1 1-.91-3.551 5.5 5.5 0 0 0 0-10.657zM16.5 15.334a5.5 5.5 0 1 0 0-11 5.5 5.5 0 0 0 0 11z"/>
    </defs>
    <use fill="#FFF" fill-rule="nonzero" xlink:href="#a"/>
</svg>
