<svg xmlns="http://www.w3.org/2000/svg" xmlns:xlink="http://www.w3.org/1999/xlink" width="33" height="41" viewBox="0 0 33 41">
    <defs>
        <path id="a" d="M20.167 6.26v6.573h6.574L20.167 6.26zm9.166 10.24h-11a1.833 1.833 0 0 1-1.833-1.833v-11h-11c-1.013 0-1.833.82-1.833 1.833v29.333c0 1.013.82 1.834 1.833 1.834h22c1.013 0 1.833-.821 1.833-1.834V16.5zm-11-16.5c.487 0 .953.193 1.297.537L32.463 13.37c.344.344.537.81.537 1.297v20.166a5.5 5.5 0 0 1-5.5 5.5h-22a5.5 5.5 0 0 1-5.5-5.5V5.5A5.5 5.5 0 0 1 5.5 0h12.833z"/>
    </defs>
    <use fill="#FFF" fill-rule="nonzero" xlink:href="#a"/>
</svg>
